<svg width="10" height="20" viewBox="0 0 10 20" fill="none" xmlns="http://www.w3.org/2000/svg">
<path d="M8.8373 0H1.1627C0.523313 0 0 0.585817 0 1.30279V17.9851C0 18.702 0.523313 19.2884 1.1627 19.2884H8.8373C9.47669 19.2884 10 18.7031 10 17.9856V1.30279C10 0.585817 9.47669 0 8.8373 0ZM3.77238 0.93907H6.22762C6.30533 0.93907 6.36829 1.00961 6.36829 1.09723C6.36829 1.18431 6.30533 1.25485 6.22762 1.25485H3.77238C3.69467 1.25485 3.63171 1.18431 3.63171 1.09723C3.63171 1.00961 3.69467 0.93907 3.77238 0.93907ZM5 18.637C4.67883 18.637 4.41865 18.3455 4.41865 17.9851C4.41865 17.6246 4.67883 17.3337 5 17.3337C5.32117 17.3337 5.58135 17.6246 5.58135 17.9851C5.58135 18.3455 5.32117 18.637 5 18.637ZM9.19093 16.8774H0.809069V2.06606H9.19093V16.8774Z" fill="#005FA3"/>
</svg>
